<?xml version="1.0" encoding="UTF-8" standalone="no"?>
<svg xmlns="http://www.w3.org/2000/svg"
   preserveAspectRatio="xMinYMin meet"
   viewBox="0 0 15.2 16.7"
   height="100%"
   width="100%"
   version="1.1"
   style='fill: grey;'>
  <path
     d="M 7.7,0 C 7.7,0 6.5,2.4 6.3,2.6 6.1,2.9 6,2.9 5.7,2.8 5.4,2.6 4.4,2.1 4.4,2.1 4.4,2.1 5.3,6 5.3,6.3 5.4,6.6 5.1,6.9 4.7,6.6 4.6,6.5 2.9,4.6 2.9,4.6 2.9,4.6 2.5,5.5 2.4,5.7 2.3,5.9 2.2,6 2,5.9 1.7,5.8 0.1,5.5 0.1,5.5 0.1,5.5 0.7,7.4 0.8,7.7 0.9,7.9 1,8.1 0.6,8.3 L 0,8.5 c 0,0 3.3,2.9 3.4,3 0.2,0.2 0.3,0.2 0.2,0.7 -0.2,0.5 -0.3,1.1 -0.3,1.1 0,0 3.1,-0.7 3.4,-0.7 0.3,0 0.6,0.1 0.6,0.4 0,0.3 -0.2,3.7 -0.2,3.7 l 1,0 c 0,0 -0.2,-3.3 -0.2,-3.7 0,-0.3 0.3,-0.4 0.6,-0.4 0.3,0.1 3.4,0.7 3.4,0.7 0,0 -0.2,-0.7 -0.3,-1.1 -0.2,-0.5 0,-0.6 0.2,-0.7 0.1,-0.1 3.4,-3 3.4,-3 L 14.6,8.3 C 14.3,8.1 14.4,7.9 14.4,7.7 c 0.1,-0.2 0.7,-2.2 0.7,-2.2 0,0 -1.6,0.3 -1.9,0.4 C 13,6 12.9,5.8 12.8,5.7 12.7,5.5 12.3,4.6 12.3,4.6 c 0,0 -1.7,2 -1.8,2 -0.3,0.2 -0.7,0 -0.6,-0.3 0,-0.3 0.9,-4.2 0.9,-4.2 0,0 -1,0.6 -1.3,0.7 C 9.3,3 9.1,3 8.9,2.6 8.9,2.3 7.7,0 7.7,0 Z"
     class="canada_leaf" stroke="#000" stroke-width="0.5" />
</svg>
